<mxfile host="Electron" agent="Mozilla/5.0 (X11; Linux x86_64) AppleWebKit/537.36 (KHTML, like Gecko) draw.io/28.1.2 Chrome/138.0.7204.251 Electron/37.5.1 Safari/537.36" version="28.1.2">
  <diagram name="PÃ¡gina-1" id="oE5SToJG6d0fqBrR_LVp">
    <mxGraphModel dx="1426" dy="864" grid="1" gridSize="10" guides="1" tooltips="1" connect="1" arrows="1" fold="1" page="1" pageScale="1" pageWidth="1169" pageHeight="827" math="0" shadow="0">
      <root>
        <mxCell id="0" />
        <mxCell id="1" parent="0" />
        <mxCell id="VFbqoTpo-AncsB198l_c-7" value="id" style="ellipse;whiteSpace=wrap;html=1;fillColor=none;" parent="1" vertex="1">
          <mxGeometry x="320" y="108.5" width="40" height="29.5" as="geometry" />
        </mxCell>
        <mxCell id="VFbqoTpo-AncsB198l_c-10" value="id" style="ellipse;whiteSpace=wrap;html=1;fillColor=none;" parent="1" vertex="1">
          <mxGeometry x="980.25" y="360" width="32.5" height="20" as="geometry" />
        </mxCell>
        <mxCell id="VFbqoTpo-AncsB198l_c-4" value="plate_number" style="ellipse;whiteSpace=wrap;html=1;fillColor=none;" parent="1" vertex="1">
          <mxGeometry x="956.5" y="60" width="89" height="40" as="geometry" />
        </mxCell>
        <mxCell id="YD6msoa2M3r7hMomgX2S-1" value="&lt;span style=&quot;font-size: 20px;&quot;&gt;&lt;i&gt;Driver&lt;/i&gt;&lt;/span&gt;" style="rounded=0;whiteSpace=wrap;html=1;fillColor=none;" parent="1" vertex="1">
          <mxGeometry x="370" y="118" width="110" height="80" as="geometry" />
        </mxCell>
        <mxCell id="YD6msoa2M3r7hMomgX2S-2" value="&lt;i style=&quot;&quot;&gt;&lt;font style=&quot;font-size: 20px;&quot;&gt;Vehicle&lt;/font&gt;&lt;/i&gt;" style="rounded=0;whiteSpace=wrap;html=1;fillColor=none;align=center;" parent="1" vertex="1">
          <mxGeometry x="840" y="118" width="110" height="80" as="geometry" />
        </mxCell>
        <mxCell id="YD6msoa2M3r7hMomgX2S-3" value="&lt;span style=&quot;font-size: 16px;&quot;&gt;&lt;i&gt;Drives&lt;/i&gt;&lt;/span&gt;" style="html=1;whiteSpace=wrap;aspect=fixed;shape=isoRectangle;fillColor=none;" parent="1" vertex="1">
          <mxGeometry x="590" y="118" width="133.34" height="80" as="geometry" />
        </mxCell>
        <mxCell id="YD6msoa2M3r7hMomgX2S-5" value="" style="endArrow=none;html=1;rounded=0;exitX=1;exitY=0.5;exitDx=0;exitDy=0;" parent="1" source="YD6msoa2M3r7hMomgX2S-1" edge="1">
          <mxGeometry width="50" height="50" relative="1" as="geometry">
            <mxPoint x="490" y="158" as="sourcePoint" />
            <mxPoint x="590" y="158" as="targetPoint" />
          </mxGeometry>
        </mxCell>
        <mxCell id="YD6msoa2M3r7hMomgX2S-6" value="" style="endArrow=none;html=1;rounded=0;exitX=1;exitY=0.5;exitDx=0;exitDy=0;entryX=0;entryY=0.5;entryDx=0;entryDy=0;" parent="1" target="YD6msoa2M3r7hMomgX2S-2" edge="1">
          <mxGeometry width="50" height="50" relative="1" as="geometry">
            <mxPoint x="723.34" y="157.5" as="sourcePoint" />
            <mxPoint x="835.34" y="158.5" as="targetPoint" />
            <Array as="points">
              <mxPoint x="780" y="158" />
            </Array>
          </mxGeometry>
        </mxCell>
        <mxCell id="YD6msoa2M3r7hMomgX2S-23" value="" style="endArrow=none;html=1;rounded=0;entryX=0;entryY=0.75;entryDx=0;entryDy=0;exitX=0.5;exitY=0;exitDx=0;exitDy=0;" parent="1" source="VFbqoTpo-AncsB198l_c-9" target="YD6msoa2M3r7hMomgX2S-1" edge="1">
          <mxGeometry width="50" height="50" relative="1" as="geometry">
            <mxPoint x="311.8439935162654" y="210.2700901416237" as="sourcePoint" />
            <mxPoint x="330" y="168" as="targetPoint" />
            <Array as="points" />
          </mxGeometry>
        </mxCell>
        <mxCell id="YD6msoa2M3r7hMomgX2S-25" value="" style="endArrow=none;html=1;rounded=0;entryX=0;entryY=0.5;entryDx=0;entryDy=0;exitX=1;exitY=0.5;exitDx=0;exitDy=0;" parent="1" source="VFbqoTpo-AncsB198l_c-8" target="YD6msoa2M3r7hMomgX2S-1" edge="1">
          <mxGeometry width="50" height="50" relative="1" as="geometry">
            <mxPoint x="295.90990257669864" y="157.09009742330147" as="sourcePoint" />
            <mxPoint x="371" y="145" as="targetPoint" />
            <Array as="points" />
          </mxGeometry>
        </mxCell>
        <mxCell id="YD6msoa2M3r7hMomgX2S-48" value="" style="endArrow=none;html=1;rounded=0;exitX=1;exitY=0.5;exitDx=0;exitDy=0;entryX=0;entryY=0.25;entryDx=0;entryDy=0;" parent="1" source="VFbqoTpo-AncsB198l_c-7" target="YD6msoa2M3r7hMomgX2S-1" edge="1">
          <mxGeometry width="50" height="50" relative="1" as="geometry">
            <mxPoint x="335.0000000000007" y="129.5" as="sourcePoint" />
            <mxPoint x="360" y="130" as="targetPoint" />
            <Array as="points" />
          </mxGeometry>
        </mxCell>
        <mxCell id="YD6msoa2M3r7hMomgX2S-49" value="(0, 1)" style="text;html=1;align=center;verticalAlign=middle;whiteSpace=wrap;rounded=0;" parent="1" vertex="1">
          <mxGeometry x="500" y="118" width="60" height="30" as="geometry" />
        </mxCell>
        <mxCell id="YD6msoa2M3r7hMomgX2S-50" value="(0, 1)" style="text;html=1;align=center;verticalAlign=middle;whiteSpace=wrap;rounded=0;" parent="1" vertex="1">
          <mxGeometry x="750" y="118" width="60" height="30" as="geometry" />
        </mxCell>
        <mxCell id="EoohrdejDbw18MWcAkVu-11" value="" style="endArrow=none;html=1;rounded=0;strokeWidth=1.5;strokeColor=#00ff00;" parent="1" edge="1">
          <mxGeometry width="50" height="50" relative="1" as="geometry">
            <mxPoint x="335" y="131" as="sourcePoint" />
            <mxPoint x="345" y="131" as="targetPoint" />
          </mxGeometry>
        </mxCell>
        <mxCell id="EoohrdejDbw18MWcAkVu-15" style="edgeStyle=orthogonalEdgeStyle;rounded=0;orthogonalLoop=1;jettySize=auto;html=1;exitX=0.5;exitY=1;exitDx=0;exitDy=0;" parent="1" edge="1">
          <mxGeometry relative="1" as="geometry">
            <mxPoint x="280" y="195.5" as="sourcePoint" />
            <mxPoint x="280" y="195.5" as="targetPoint" />
          </mxGeometry>
        </mxCell>
        <mxCell id="7mogBvrklBRCSHPhgobV-1" value="&lt;i style=&quot;&quot;&gt;&lt;font style=&quot;font-size: 20px;&quot;&gt;Parking&lt;/font&gt;&lt;/i&gt;" style="rounded=0;whiteSpace=wrap;html=1;fillColor=none;align=center;" parent="1" vertex="1">
          <mxGeometry x="840" y="360" width="110" height="80" as="geometry" />
        </mxCell>
        <mxCell id="7mogBvrklBRCSHPhgobV-2" value="&lt;span style=&quot;font-size: 16px;&quot;&gt;&lt;i&gt;Park&lt;/i&gt;&lt;/span&gt;" style="html=1;whiteSpace=wrap;aspect=fixed;shape=isoRectangle;fillColor=none;" parent="1" vertex="1">
          <mxGeometry x="828.33" y="240" width="133.34" height="80" as="geometry" />
        </mxCell>
        <mxCell id="7mogBvrklBRCSHPhgobV-3" value="" style="endArrow=none;html=1;rounded=0;entryX=0.5;entryY=1;entryDx=0;entryDy=0;exitX=0.499;exitY=0.024;exitDx=0;exitDy=0;exitPerimeter=0;" parent="1" source="7mogBvrklBRCSHPhgobV-2" target="YD6msoa2M3r7hMomgX2S-2" edge="1">
          <mxGeometry width="50" height="50" relative="1" as="geometry">
            <mxPoint x="900" y="230" as="sourcePoint" />
            <mxPoint x="890" y="210" as="targetPoint" />
            <Array as="points" />
          </mxGeometry>
        </mxCell>
        <mxCell id="7mogBvrklBRCSHPhgobV-4" value="" style="endArrow=none;html=1;rounded=0;exitX=0.499;exitY=0.024;exitDx=0;exitDy=0;exitPerimeter=0;entryX=0.499;entryY=0.978;entryDx=0;entryDy=0;entryPerimeter=0;" parent="1" target="7mogBvrklBRCSHPhgobV-2" edge="1">
          <mxGeometry width="50" height="50" relative="1" as="geometry">
            <mxPoint x="894.9" y="360" as="sourcePoint" />
            <mxPoint x="895" y="320" as="targetPoint" />
            <Array as="points" />
          </mxGeometry>
        </mxCell>
        <mxCell id="7mogBvrklBRCSHPhgobV-5" value="(1, 1)" style="text;html=1;align=center;verticalAlign=middle;whiteSpace=wrap;rounded=0;" parent="1" vertex="1">
          <mxGeometry x="840" y="210" width="60" height="30" as="geometry" />
        </mxCell>
        <mxCell id="7mogBvrklBRCSHPhgobV-6" value="(0, n)" style="text;html=1;align=center;verticalAlign=middle;whiteSpace=wrap;rounded=0;" parent="1" vertex="1">
          <mxGeometry x="840" y="320" width="60" height="30" as="geometry" />
        </mxCell>
        <mxCell id="eusQgZ99jfotjbnobgPZ-4" value="" style="endArrow=none;html=1;rounded=0;exitX=1;exitY=0.25;exitDx=0;exitDy=0;entryX=0;entryY=0.5;entryDx=0;entryDy=0;" parent="1" source="YD6msoa2M3r7hMomgX2S-2" target="VFbqoTpo-AncsB198l_c-13" edge="1">
          <mxGeometry width="50" height="50" relative="1" as="geometry">
            <mxPoint x="900" y="150" as="sourcePoint" />
            <mxPoint x="979.9999999999943" y="129.5" as="targetPoint" />
          </mxGeometry>
        </mxCell>
        <mxCell id="eusQgZ99jfotjbnobgPZ-5" value="" style="endArrow=none;html=1;rounded=0;exitX=1;exitY=0.5;exitDx=0;exitDy=0;entryX=0;entryY=0.5;entryDx=0;entryDy=0;" parent="1" source="YD6msoa2M3r7hMomgX2S-2" target="VFbqoTpo-AncsB198l_c-12" edge="1">
          <mxGeometry width="50" height="50" relative="1" as="geometry">
            <mxPoint x="960" y="148" as="sourcePoint" />
            <mxPoint x="979.9999999999943" y="179" as="targetPoint" />
            <Array as="points" />
          </mxGeometry>
        </mxCell>
        <mxCell id="eusQgZ99jfotjbnobgPZ-6" value="" style="endArrow=none;html=1;rounded=0;exitX=1;exitY=0;exitDx=0;exitDy=0;entryX=0;entryY=1;entryDx=0;entryDy=0;" parent="1" source="YD6msoa2M3r7hMomgX2S-2" target="VFbqoTpo-AncsB198l_c-4" edge="1">
          <mxGeometry width="50" height="50" relative="1" as="geometry">
            <mxPoint x="970" y="158" as="sourcePoint" />
            <mxPoint x="981.7157287525381" y="88.28427124746196" as="targetPoint" />
          </mxGeometry>
        </mxCell>
        <mxCell id="eusQgZ99jfotjbnobgPZ-9" value="" style="endArrow=none;html=1;rounded=0;exitX=1;exitY=0.75;exitDx=0;exitDy=0;entryX=0;entryY=0.5;entryDx=0;entryDy=0;" parent="1" source="YD6msoa2M3r7hMomgX2S-2" target="VFbqoTpo-AncsB198l_c-11" edge="1">
          <mxGeometry width="50" height="50" relative="1" as="geometry">
            <mxPoint x="960" y="188" as="sourcePoint" />
            <mxPoint x="1003.4999999999941" y="229" as="targetPoint" />
            <Array as="points" />
          </mxGeometry>
        </mxCell>
        <mxCell id="eusQgZ99jfotjbnobgPZ-10" value="(1, n)" style="text;html=1;align=center;verticalAlign=middle;whiteSpace=wrap;rounded=0;" parent="1" vertex="1">
          <mxGeometry x="1010" y="180.5" width="60" height="30" as="geometry" />
        </mxCell>
        <mxCell id="eusQgZ99jfotjbnobgPZ-12" value="address" style="ellipse;whiteSpace=wrap;html=1;fillColor=none;" parent="1" vertex="1">
          <mxGeometry x="989" y="384" width="51" height="30" as="geometry" />
        </mxCell>
        <mxCell id="eusQgZ99jfotjbnobgPZ-15" value="" style="endArrow=none;html=1;rounded=0;exitX=1;exitY=0.5;exitDx=0;exitDy=0;entryX=0;entryY=0.5;entryDx=0;entryDy=0;" parent="1" source="7mogBvrklBRCSHPhgobV-1" target="eusQgZ99jfotjbnobgPZ-12" edge="1">
          <mxGeometry width="50" height="50" relative="1" as="geometry">
            <mxPoint x="930" y="480" as="sourcePoint" />
            <mxPoint x="980" y="430" as="targetPoint" />
            <Array as="points" />
          </mxGeometry>
        </mxCell>
        <mxCell id="eusQgZ99jfotjbnobgPZ-17" value="" style="endArrow=none;html=1;rounded=0;exitX=1;exitY=1;exitDx=0;exitDy=0;entryX=0;entryY=0;entryDx=0;entryDy=0;" parent="1" source="eusQgZ99jfotjbnobgPZ-12" target="VFbqoTpo-AncsB198l_c-17" edge="1">
          <mxGeometry width="50" height="50" relative="1" as="geometry">
            <mxPoint x="1042" y="400.5" as="sourcePoint" />
            <mxPoint x="1081" y="443" as="targetPoint" />
          </mxGeometry>
        </mxCell>
        <mxCell id="eusQgZ99jfotjbnobgPZ-18" value="" style="endArrow=none;html=1;rounded=0;exitX=1;exitY=0.5;exitDx=0;exitDy=0;entryX=0;entryY=0.5;entryDx=0;entryDy=0;" parent="1" source="eusQgZ99jfotjbnobgPZ-12" target="VFbqoTpo-AncsB198l_c-16" edge="1">
          <mxGeometry width="50" height="50" relative="1" as="geometry">
            <mxPoint x="1043" y="420" as="sourcePoint" />
            <mxPoint x="1081" y="394" as="targetPoint" />
          </mxGeometry>
        </mxCell>
        <mxCell id="eusQgZ99jfotjbnobgPZ-19" value="" style="endArrow=none;html=1;rounded=0;exitX=1;exitY=0;exitDx=0;exitDy=0;entryX=0.019;entryY=0.633;entryDx=0;entryDy=0;entryPerimeter=0;" parent="1" source="eusQgZ99jfotjbnobgPZ-12" target="VFbqoTpo-AncsB198l_c-3" edge="1">
          <mxGeometry width="50" height="50" relative="1" as="geometry">
            <mxPoint x="1053" y="430" as="sourcePoint" />
            <mxPoint x="1090.3933982822018" y="357.6066017177982" as="targetPoint" />
          </mxGeometry>
        </mxCell>
        <mxCell id="eusQgZ99jfotjbnobgPZ-21" value="" style="endArrow=none;html=1;rounded=0;exitX=1;exitY=0.25;exitDx=0;exitDy=0;entryX=0;entryY=0.5;entryDx=0;entryDy=0;" parent="1" source="7mogBvrklBRCSHPhgobV-1" target="VFbqoTpo-AncsB198l_c-10" edge="1">
          <mxGeometry width="50" height="50" relative="1" as="geometry">
            <mxPoint x="960" y="410" as="sourcePoint" />
            <mxPoint x="1001.5" y="353" as="targetPoint" />
            <Array as="points" />
          </mxGeometry>
        </mxCell>
        <mxCell id="eusQgZ99jfotjbnobgPZ-24" value="" style="endArrow=none;html=1;rounded=0;strokeWidth=1.5;strokeColor=#00ff00;" parent="1" edge="1">
          <mxGeometry width="50" height="50" relative="1" as="geometry">
            <mxPoint x="991.5" y="376" as="sourcePoint" />
            <mxPoint x="1001.5" y="376" as="targetPoint" />
          </mxGeometry>
        </mxCell>
        <mxCell id="eusQgZ99jfotjbnobgPZ-27" value="" style="endArrow=none;html=1;rounded=0;entryX=0.723;entryY=0.778;entryDx=0;entryDy=0;exitX=0.5;exitY=0;exitDx=0;exitDy=0;entryPerimeter=0;" parent="1" source="VFbqoTpo-AncsB198l_c-5" target="YD6msoa2M3r7hMomgX2S-3" edge="1">
          <mxGeometry width="50" height="50" relative="1" as="geometry">
            <mxPoint x="701" y="100" as="sourcePoint" />
            <mxPoint x="850" y="168" as="targetPoint" />
            <Array as="points" />
          </mxGeometry>
        </mxCell>
        <mxCell id="eusQgZ99jfotjbnobgPZ-28" value="" style="endArrow=none;html=1;rounded=0;entryX=0.215;entryY=0.707;entryDx=0;entryDy=0;exitX=0.5;exitY=0;exitDx=0;exitDy=0;entryPerimeter=0;" parent="1" source="VFbqoTpo-AncsB198l_c-6" target="YD6msoa2M3r7hMomgX2S-3" edge="1">
          <mxGeometry width="50" height="50" relative="1" as="geometry">
            <mxPoint x="621" y="100" as="sourcePoint" />
            <mxPoint x="614.5" y="138" as="targetPoint" />
            <Array as="points" />
          </mxGeometry>
        </mxCell>
        <mxCell id="VFbqoTpo-AncsB198l_c-3" value="city" style="ellipse;whiteSpace=wrap;html=1;fillColor=none;" parent="1" vertex="1">
          <mxGeometry x="1049.75" y="364" width="34.5" height="20" as="geometry" />
        </mxCell>
        <mxCell id="VFbqoTpo-AncsB198l_c-5" value="end_date" style="ellipse;whiteSpace=wrap;html=1;fillColor=none;" parent="1" vertex="1">
          <mxGeometry x="690" y="190" width="70" height="32" as="geometry" />
        </mxCell>
        <mxCell id="VFbqoTpo-AncsB198l_c-6" value="start_date" style="ellipse;whiteSpace=wrap;html=1;fillColor=none;" parent="1" vertex="1">
          <mxGeometry x="545" y="190" width="80" height="30" as="geometry" />
        </mxCell>
        <mxCell id="VFbqoTpo-AncsB198l_c-8" value="name" style="ellipse;whiteSpace=wrap;html=1;fillColor=none;" parent="1" vertex="1">
          <mxGeometry x="300" y="150.5" width="45" height="30" as="geometry" />
        </mxCell>
        <mxCell id="VFbqoTpo-AncsB198l_c-9" value="phone_number" style="ellipse;whiteSpace=wrap;html=1;fillColor=none;" parent="1" vertex="1">
          <mxGeometry x="275" y="204" width="95" height="40" as="geometry" />
        </mxCell>
        <mxCell id="VFbqoTpo-AncsB198l_c-11" value="image" style="ellipse;whiteSpace=wrap;html=1;fillColor=none;" parent="1" vertex="1">
          <mxGeometry x="972" y="180" width="49" height="30" as="geometry" />
        </mxCell>
        <mxCell id="VFbqoTpo-AncsB198l_c-12" value="model" style="ellipse;whiteSpace=wrap;html=1;fillColor=none;" parent="1" vertex="1">
          <mxGeometry x="977.5" y="145.5" width="50" height="25" as="geometry" />
        </mxCell>
        <mxCell id="VFbqoTpo-AncsB198l_c-13" value="brand" style="ellipse;whiteSpace=wrap;html=1;fillColor=none;" parent="1" vertex="1">
          <mxGeometry x="980" y="110" width="41" height="22" as="geometry" />
        </mxCell>
        <mxCell id="VFbqoTpo-AncsB198l_c-16" value="street" style="ellipse;whiteSpace=wrap;html=1;fillColor=none;" parent="1" vertex="1">
          <mxGeometry x="1060" y="390" width="52.5" height="20" as="geometry" />
        </mxCell>
        <mxCell id="VFbqoTpo-AncsB198l_c-17" value="number" style="ellipse;whiteSpace=wrap;html=1;fillColor=none;" parent="1" vertex="1">
          <mxGeometry x="1040" y="414" width="54" height="30" as="geometry" />
        </mxCell>
        <mxCell id="eusQgZ99jfotjbnobgPZ-30" value="" style="endArrow=none;html=1;rounded=0;strokeWidth=1.5;strokeColor=#00ff00;" parent="1" edge="1">
          <mxGeometry width="50" height="50" relative="1" as="geometry">
            <mxPoint x="988.9999999999999" y="90" as="sourcePoint" />
            <mxPoint x="1007.42" y="90" as="targetPoint" />
            <Array as="points" />
          </mxGeometry>
        </mxCell>
        <mxCell id="f-GZX0_zxyLY-zXEIDaX-1" value="&lt;b style=&quot;font-size: 18px;&quot;&gt;1:N&lt;/b&gt;" style="text;html=1;align=center;verticalAlign=middle;whiteSpace=wrap;rounded=0;fontSize=18;" parent="1" vertex="1">
          <mxGeometry x="770" y="268.25" width="53.33" height="23.5" as="geometry" />
        </mxCell>
        <mxCell id="f-GZX0_zxyLY-zXEIDaX-2" value="&lt;b style=&quot;font-size: 18px;&quot;&gt;1:1&lt;/b&gt;" style="text;html=1;align=center;verticalAlign=middle;whiteSpace=wrap;rounded=0;fontSize=18;" parent="1" vertex="1">
          <mxGeometry x="630.01" y="85" width="53.33" height="23.5" as="geometry" />
        </mxCell>
      </root>
    </mxGraphModel>
  </diagram>
</mxfile>
